<svg width="204" height="107" viewBox="0 0 204 107" fill="none" xmlns="http://www.w3.org/2000/svg">
<path d="M63.4548 31.188C64.6068 31.188 65.6868 31.416 66.6948 31.872C67.7268 32.304 68.6148 32.904 69.3588 33.672C70.1268 34.416 70.7268 35.304 71.1588 36.336C71.6148 37.368 71.8428 38.46 71.8428 39.612C71.8428 40.764 71.6148 41.856 71.1588 42.888C70.7268 43.896 70.1268 44.784 69.3588 45.552C68.6148 46.296 67.7268 46.896 66.6948 47.352C65.6868 47.784 64.6068 48 63.4548 48C61.8468 48 60.3948 47.592 59.0988 46.776V48H55.0668V22.8H59.0988V32.412C59.7228 32.028 60.4068 31.728 61.1508 31.512C61.8948 31.296 62.6628 31.188 63.4548 31.188ZM71.5188 39.612C71.5188 38.484 71.3028 37.44 70.8708 36.48C70.4628 35.496 69.8868 34.644 69.1428 33.924C68.4228 33.18 67.5708 32.604 66.5868 32.196C65.6268 31.764 64.5828 31.548 63.4548 31.548C62.6388 31.548 61.8588 31.668 61.1148 31.908C60.3948 32.124 59.7228 32.436 59.0988 32.844C58.5228 33.18 58.0068 33.6 57.5508 34.104C57.0948 34.608 56.6988 35.16 56.3628 35.76C56.0508 36.36 55.8108 36.996 55.6428 37.668C55.4748 38.316 55.3908 38.964 55.3908 39.612C55.3908 40.26 55.4748 40.92 55.6428 41.592C55.8108 42.24 56.0508 42.864 56.3628 43.464C56.6988 44.064 57.0948 44.616 57.5508 45.12C58.0068 45.6 58.5228 46.008 59.0988 46.344C59.7228 46.752 60.3948 47.076 61.1148 47.316C61.8588 47.532 62.6388 47.64 63.4548 47.64C64.5588 47.64 65.6028 47.436 66.5868 47.028C67.5708 46.596 68.4228 46.02 69.1428 45.3C69.8868 44.556 70.4628 43.704 70.8708 42.744C71.3028 41.76 71.5188 40.716 71.5188 39.612ZM92.6553 39.612C92.6553 40.764 92.4273 41.856 91.9713 42.888C91.5393 43.896 90.9393 44.784 90.1713 45.552C89.4273 46.296 88.5393 46.896 87.5073 47.352C86.4993 47.784 85.4193 48 84.2673 48C83.1153 48 82.0233 47.784 80.9913 47.352C79.9593 46.896 79.0593 46.296 78.2913 45.552C77.5473 44.784 76.9473 43.896 76.4913 42.888C76.0593 41.856 75.8433 40.764 75.8433 39.612C75.8433 38.46 76.0593 37.368 76.4913 36.336C76.9473 35.304 77.5473 34.416 78.2913 33.672C79.0593 32.904 79.9593 32.304 80.9913 31.872C82.0233 31.416 83.1153 31.188 84.2673 31.188C85.4193 31.188 86.4993 31.416 87.5073 31.872C88.5393 32.304 89.4273 32.904 90.1713 33.672C90.9393 34.416 91.5393 35.304 91.9713 36.336C92.4273 37.368 92.6553 38.46 92.6553 39.612ZM92.2953 39.612C92.2953 38.484 92.0793 37.44 91.6473 36.48C91.2393 35.496 90.6753 34.644 89.9553 33.924C89.2353 33.18 88.3833 32.604 87.3993 32.196C86.4393 31.764 85.3953 31.548 84.2673 31.548C83.1393 31.548 82.0833 31.764 81.0993 32.196C80.1153 32.604 79.2633 33.168 78.5433 33.888C77.8233 34.608 77.2473 35.46 76.8153 36.444C76.4073 37.428 76.2033 38.484 76.2033 39.612C76.2033 40.716 76.4073 41.76 76.8153 42.744C77.2473 43.728 77.8233 44.58 78.5433 45.3C79.2873 46.02 80.1513 46.596 81.1353 47.028C82.1193 47.436 83.1633 47.64 84.2673 47.64C85.3713 47.64 86.4033 47.436 87.3633 47.028C88.3473 46.596 89.1993 46.02 89.9193 45.3C90.6633 44.556 91.2393 43.704 91.6473 42.744C92.0793 41.76 92.2953 40.716 92.2953 39.612ZM100.689 47.964C99.2006 47.868 97.8566 47.4 96.6566 46.56V31.188H100.689V47.604C100.809 47.628 100.917 47.64 101.013 47.64C101.133 47.64 101.253 47.64 101.373 47.64C102.453 47.64 103.473 47.436 104.433 47.028C105.417 46.62 106.269 46.056 106.989 45.336C107.733 44.616 108.321 43.776 108.753 42.816C109.185 41.856 109.401 40.824 109.401 39.72V31.188H113.433V48H109.401V41.988C109.161 42.852 108.777 43.656 108.249 44.4C107.745 45.144 107.133 45.78 106.413 46.308C105.717 46.836 104.937 47.256 104.073 47.568C103.209 47.856 102.309 48 101.373 48C101.253 48 101.133 48 101.013 48C100.917 48 100.809 47.988 100.689 47.964ZM128.809 43.464H129.169C128.809 44.16 128.365 44.796 127.837 45.372C127.309 45.924 126.721 46.404 126.073 46.812C125.425 47.196 124.729 47.496 123.985 47.712C123.241 47.904 122.485 48 121.717 48C120.973 48 120.301 47.916 119.701 47.748V31.548H117.433V31.188H119.701V22.8H123.733V31.188H128.269V31.548H123.733V47.388C124.837 47.1 125.821 46.62 126.685 45.948C127.549 45.276 128.257 44.448 128.809 43.464ZM172.138 31.224C172.882 31.272 173.59 31.428 174.262 31.692C174.934 31.932 175.57 32.256 176.17 32.664V48H172.138V31.584C172.018 31.56 171.898 31.548 171.778 31.548C171.682 31.548 171.574 31.548 171.454 31.548C170.35 31.548 169.306 31.752 168.322 32.16C167.338 32.568 166.486 33.132 165.766 33.852C165.046 34.572 164.47 35.412 164.038 36.372C163.63 37.332 163.414 38.376 163.39 39.504V48H159.358V31.584C159.238 31.56 159.118 31.548 158.998 31.548C158.902 31.548 158.794 31.548 158.674 31.548C157.57 31.548 156.526 31.752 155.542 32.16C154.582 32.568 153.73 33.132 152.986 33.852C152.266 34.572 151.69 35.424 151.258 36.408C150.85 37.368 150.634 38.4 150.61 39.504V48H146.578V31.188H150.61V37.2C150.874 36.336 151.258 35.544 151.762 34.824C152.29 34.08 152.902 33.444 153.598 32.916C154.294 32.364 155.074 31.944 155.938 31.656C156.802 31.344 157.714 31.188 158.674 31.188C158.794 31.188 158.902 31.2 158.998 31.224C159.118 31.224 159.238 31.224 159.358 31.224C160.102 31.272 160.81 31.428 161.482 31.692C162.178 31.932 162.814 32.256 163.39 32.664V37.2C163.654 36.336 164.038 35.544 164.542 34.824C165.07 34.08 165.682 33.444 166.378 32.916C167.074 32.364 167.854 31.944 168.718 31.656C169.582 31.344 170.494 31.188 171.454 31.188C171.574 31.188 171.682 31.2 171.778 31.224C171.898 31.224 172.018 31.224 172.138 31.224ZM188.541 39.792V39.432H196.605C196.581 38.328 196.353 37.296 195.921 36.336C195.489 35.376 194.913 34.548 194.193 33.852C193.473 33.132 192.621 32.568 191.637 32.16C190.677 31.752 189.645 31.548 188.541 31.548C187.437 31.548 186.393 31.764 185.409 32.196C184.425 32.604 183.561 33.18 182.817 33.924C182.097 34.644 181.521 35.496 181.089 36.48C180.681 37.44 180.477 38.484 180.477 39.612C180.477 40.716 180.681 41.76 181.089 42.744C181.521 43.704 182.097 44.556 182.817 45.3C183.561 46.02 184.425 46.596 185.409 47.028C186.393 47.436 187.437 47.64 188.541 47.64C190.245 47.64 191.769 47.184 193.113 46.272C194.457 45.336 195.441 44.088 196.065 42.528H196.425C196.137 43.32 195.729 44.052 195.201 44.724C194.673 45.396 194.061 45.984 193.365 46.488C192.693 46.968 191.949 47.34 191.133 47.604C190.317 47.868 189.453 48 188.541 48C187.389 48 186.297 47.784 185.265 47.352C184.257 46.896 183.369 46.296 182.601 45.552C181.857 44.784 181.257 43.896 180.801 42.888C180.369 41.856 180.153 40.764 180.153 39.612C180.153 38.46 180.369 37.368 180.801 36.336C181.257 35.304 181.857 34.416 182.601 33.672C183.369 32.904 184.257 32.304 185.265 31.872C186.297 31.416 187.389 31.188 188.541 31.188C189.741 31.188 190.857 31.416 191.889 31.872C192.921 32.328 193.809 32.94 194.553 33.708C195.297 34.476 195.873 35.388 196.281 36.444C196.713 37.476 196.929 38.592 196.929 39.792H188.541Z" fill="#083346"/>
<path d="M41.28 14.8C42.304 14.8 43.296 14.864 44.256 14.992C45.216 15.056 46.176 15.152 47.136 15.28V82H36.384V48.784H8.64C8.768 54.352 10.08 59.408 12.576 63.952H11.52C10.176 61.392 9.184 58.8 8.544 56.176C7.968 53.488 7.68 50.704 7.68 47.824C7.744 43.216 8.672 38.928 10.464 34.96C12.256 30.928 14.656 27.44 17.664 24.496C20.736 21.488 24.288 19.12 28.32 17.392C32.416 15.664 36.736 14.8 41.28 14.8ZM36.384 47.824V16.144C32.416 16.72 28.736 17.968 25.344 19.888C22.016 21.744 19.136 24.08 16.704 26.896C14.272 29.712 12.352 32.912 10.944 36.496C9.536 40.08 8.768 43.856 8.64 47.824H36.384Z" fill="#083346"/>
</svg>
