<svg width="250" height="105" viewBox="0 0 250 105" fill="none" xmlns="http://www.w3.org/2000/svg">
<path d="M86.792 39.612C86.792 40.764 86.564 41.856 86.108 42.888C85.676 43.896 85.076 44.784 84.308 45.552C83.564 46.296 82.676 46.896 81.644 47.352C80.636 47.784 79.556 48 78.404 48C77.252 48 76.16 47.784 75.128 47.352C74.096 46.896 73.196 46.296 72.428 45.552C71.684 44.784 71.084 43.896 70.628 42.888C70.196 41.856 69.98 40.764 69.98 39.612C69.98 38.46 70.196 37.368 70.628 36.336C71.084 35.304 71.684 34.416 72.428 33.672C73.196 32.904 74.096 32.304 75.128 31.872C76.16 31.416 77.252 31.188 78.404 31.188C79.556 31.188 80.636 31.416 81.644 31.872C82.676 32.304 83.564 32.904 84.308 33.672C85.076 34.416 85.676 35.304 86.108 36.336C86.564 37.368 86.792 38.46 86.792 39.612ZM86.432 39.612C86.432 38.484 86.216 37.44 85.784 36.48C85.376 35.496 84.812 34.644 84.092 33.924C83.372 33.18 82.52 32.604 81.536 32.196C80.576 31.764 79.532 31.548 78.404 31.548C77.276 31.548 76.22 31.764 75.236 32.196C74.252 32.604 73.4 33.168 72.68 33.888C71.96 34.608 71.384 35.46 70.952 36.444C70.544 37.428 70.34 38.484 70.34 39.612C70.34 40.716 70.544 41.76 70.952 42.744C71.384 43.728 71.96 44.58 72.68 45.3C73.424 46.02 74.288 46.596 75.272 47.028C76.256 47.436 77.3 47.64 78.404 47.64C79.508 47.64 80.54 47.436 81.5 47.028C82.484 46.596 83.336 46.02 84.056 45.3C84.8 44.556 85.376 43.704 85.784 42.744C86.216 41.76 86.432 40.716 86.432 39.612ZM103.537 31.224C104.305 31.272 105.025 31.428 105.697 31.692C106.369 31.932 106.993 32.256 107.569 32.664V48H103.537V31.584C103.417 31.56 103.297 31.548 103.177 31.548C103.081 31.548 102.973 31.548 102.853 31.548C101.749 31.548 100.705 31.752 99.7213 32.16C98.7613 32.568 97.9213 33.132 97.2013 33.852C96.4813 34.572 95.9053 35.424 95.4733 36.408C95.0653 37.368 94.8493 38.4 94.8253 39.504V48H90.7933V31.188H94.8253V37.2C95.0893 36.336 95.4733 35.544 95.9773 34.824C96.4813 34.08 97.0813 33.444 97.7773 32.916C98.4973 32.364 99.2893 31.944 100.153 31.656C101.017 31.344 101.917 31.188 102.853 31.188C102.973 31.188 103.081 31.2 103.177 31.224C103.297 31.224 103.417 31.224 103.537 31.224ZM122.946 43.464H123.306C122.946 44.16 122.502 44.796 121.974 45.372C121.446 45.924 120.858 46.404 120.21 46.812C119.562 47.196 118.866 47.496 118.122 47.712C117.378 47.904 116.622 48 115.854 48C115.11 48 114.438 47.916 113.838 47.748V31.548H111.57V31.188H113.838V22.8H117.87V31.188H122.406V31.548H117.87V47.388C118.974 47.1 119.958 46.62 120.822 45.948C121.686 45.276 122.394 44.448 122.946 43.464ZM144.097 39.612V48H140.065V46.776C138.769 47.592 137.317 48 135.709 48C134.557 48 133.465 47.784 132.433 47.352C131.401 46.896 130.501 46.296 129.733 45.552C128.989 44.784 128.389 43.896 127.933 42.888C127.501 41.856 127.285 40.764 127.285 39.612C127.285 38.46 127.501 37.368 127.933 36.336C128.389 35.304 128.989 34.416 129.733 33.672C130.501 32.904 131.401 32.304 132.433 31.872C133.465 31.416 134.557 31.188 135.709 31.188C136.861 31.188 137.941 31.416 138.949 31.872C139.981 32.304 140.869 32.904 141.613 33.672C142.381 34.416 142.981 35.304 143.413 36.336C143.869 37.368 144.097 38.46 144.097 39.612ZM135.709 47.64C136.813 47.64 137.845 47.436 138.805 47.028C139.789 46.596 140.641 46.02 141.361 45.3C142.105 44.556 142.681 43.704 143.089 42.744C143.521 41.76 143.737 40.716 143.737 39.612C143.737 38.484 143.521 37.44 143.089 36.48C142.681 35.496 142.105 34.644 141.361 33.924C140.641 33.18 139.789 32.604 138.805 32.196C137.845 31.764 136.813 31.548 135.709 31.548C134.581 31.548 133.525 31.764 132.541 32.196C131.557 32.604 130.705 33.168 129.985 33.888C129.265 34.608 128.689 35.46 128.257 36.444C127.849 37.428 127.645 38.484 127.645 39.612C127.645 40.716 127.849 41.76 128.257 42.744C128.689 43.728 129.265 44.58 129.985 45.3C130.729 46.02 131.593 46.596 132.577 47.028C133.561 47.436 134.605 47.64 135.709 47.64ZM164.37 42.528C164.082 43.32 163.674 44.052 163.146 44.724C162.618 45.396 162.006 45.984 161.31 46.488C160.638 46.968 159.894 47.34 159.078 47.604C158.262 47.868 157.398 48 156.486 48C155.334 48 154.242 47.784 153.21 47.352C152.178 46.896 151.278 46.296 150.51 45.552C149.766 44.784 149.166 43.896 148.71 42.888C148.278 41.856 148.062 40.764 148.062 39.612C148.062 38.46 148.278 37.368 148.71 36.336C149.166 35.304 149.766 34.416 150.51 33.672C151.278 32.904 152.178 32.304 153.21 31.872C154.242 31.416 155.334 31.188 156.486 31.188C157.398 31.188 158.262 31.332 159.078 31.62C159.894 31.884 160.638 32.256 161.31 32.736C162.006 33.216 162.618 33.804 163.146 34.5C163.674 35.172 164.082 35.904 164.37 36.696H163.974C163.686 35.928 163.29 35.232 162.786 34.608C162.282 33.96 161.694 33.408 161.022 32.952C160.374 32.496 159.666 32.148 158.898 31.908C158.13 31.668 157.326 31.548 156.486 31.548C155.382 31.548 154.338 31.764 153.354 32.196C152.37 32.604 151.506 33.18 150.762 33.924C150.042 34.644 149.466 35.496 149.034 36.48C148.626 37.44 148.422 38.484 148.422 39.612C148.422 40.716 148.626 41.76 149.034 42.744C149.466 43.704 150.042 44.556 150.762 45.3C151.506 46.02 152.37 46.596 153.354 47.028C154.338 47.436 155.382 47.64 156.486 47.64C157.326 47.64 158.13 47.52 158.898 47.28C159.666 47.04 160.374 46.704 161.022 46.272C161.694 45.816 162.282 45.276 162.786 44.652C163.29 44.004 163.686 43.296 163.974 42.528H164.37ZM179.723 43.464H180.083C179.723 44.16 179.279 44.796 178.751 45.372C178.223 45.924 177.635 46.404 176.987 46.812C176.339 47.196 175.643 47.496 174.899 47.712C174.155 47.904 173.399 48 172.631 48C171.887 48 171.215 47.916 170.615 47.748V31.548H168.347V31.188H170.615V22.8H174.647V31.188H179.183V31.548H174.647V47.388C175.751 47.1 176.735 46.62 177.599 45.948C178.463 45.276 179.171 44.448 179.723 43.464ZM223.052 31.224C223.796 31.272 224.504 31.428 225.176 31.692C225.848 31.932 226.484 32.256 227.084 32.664V48H223.052V31.584C222.932 31.56 222.812 31.548 222.692 31.548C222.596 31.548 222.488 31.548 222.368 31.548C221.264 31.548 220.22 31.752 219.236 32.16C218.252 32.568 217.4 33.132 216.68 33.852C215.96 34.572 215.384 35.412 214.952 36.372C214.544 37.332 214.328 38.376 214.304 39.504V48H210.272V31.584C210.152 31.56 210.032 31.548 209.912 31.548C209.816 31.548 209.708 31.548 209.588 31.548C208.484 31.548 207.44 31.752 206.456 32.16C205.496 32.568 204.644 33.132 203.9 33.852C203.18 34.572 202.604 35.424 202.172 36.408C201.764 37.368 201.548 38.4 201.524 39.504V48H197.492V31.188H201.524V37.2C201.788 36.336 202.172 35.544 202.676 34.824C203.204 34.08 203.816 33.444 204.512 32.916C205.208 32.364 205.988 31.944 206.852 31.656C207.716 31.344 208.628 31.188 209.588 31.188C209.708 31.188 209.816 31.2 209.912 31.224C210.032 31.224 210.152 31.224 210.272 31.224C211.016 31.272 211.724 31.428 212.396 31.692C213.092 31.932 213.728 32.256 214.304 32.664V37.2C214.568 36.336 214.952 35.544 215.456 34.824C215.984 34.08 216.596 33.444 217.292 32.916C217.988 32.364 218.768 31.944 219.632 31.656C220.496 31.344 221.408 31.188 222.368 31.188C222.488 31.188 222.596 31.2 222.692 31.224C222.812 31.224 222.932 31.224 223.052 31.224ZM239.455 39.792V39.432H247.519C247.495 38.328 247.267 37.296 246.835 36.336C246.403 35.376 245.827 34.548 245.107 33.852C244.387 33.132 243.535 32.568 242.551 32.16C241.591 31.752 240.559 31.548 239.455 31.548C238.351 31.548 237.307 31.764 236.323 32.196C235.339 32.604 234.475 33.18 233.731 33.924C233.011 34.644 232.435 35.496 232.003 36.48C231.595 37.44 231.391 38.484 231.391 39.612C231.391 40.716 231.595 41.76 232.003 42.744C232.435 43.704 233.011 44.556 233.731 45.3C234.475 46.02 235.339 46.596 236.323 47.028C237.307 47.436 238.351 47.64 239.455 47.64C241.159 47.64 242.683 47.184 244.027 46.272C245.371 45.336 246.355 44.088 246.979 42.528H247.339C247.051 43.32 246.643 44.052 246.115 44.724C245.587 45.396 244.975 45.984 244.279 46.488C243.607 46.968 242.863 47.34 242.047 47.604C241.231 47.868 240.367 48 239.455 48C238.303 48 237.211 47.784 236.179 47.352C235.171 46.896 234.283 46.296 233.515 45.552C232.771 44.784 232.171 43.896 231.715 42.888C231.283 41.856 231.067 40.764 231.067 39.612C231.067 38.46 231.283 37.368 231.715 36.336C232.171 35.304 232.771 34.416 233.515 33.672C234.283 32.904 235.171 32.304 236.179 31.872C237.211 31.416 238.303 31.188 239.455 31.188C240.655 31.188 241.771 31.416 242.803 31.872C243.835 32.328 244.723 32.94 245.467 33.708C246.211 34.476 246.787 35.388 247.195 36.444C247.627 37.476 247.843 38.592 247.843 39.792H239.455Z" fill="#083346"/>
<path d="M71.136 61.952C69.728 64.64 67.968 67.104 65.856 69.344C63.808 71.52 61.504 73.408 58.944 75.008C56.384 76.608 53.6 77.856 50.592 78.752C47.648 79.584 44.544 80 41.28 80C36.672 80 32.32 79.136 28.224 77.408C24.128 75.616 20.544 73.216 17.472 70.208C14.464 67.136 12.064 63.552 10.272 59.456C8.544 55.36 7.68 51.008 7.68 46.4C7.68 41.792 8.544 37.44 10.272 33.344C12.064 29.248 14.464 25.696 17.472 22.688C20.544 19.616 24.128 17.216 28.224 15.488C32.32 13.696 36.672 12.8 41.28 12.8C44.544 12.8 47.648 13.248 50.592 14.144C53.6 14.976 56.384 16.192 58.944 17.792C61.504 19.392 63.808 21.312 65.856 23.552C67.968 25.728 69.728 28.16 71.136 30.848H70.08C67.136 25.536 63.136 21.376 58.08 18.368C53.024 15.296 47.424 13.76 41.28 13.76C36.8 13.76 32.576 14.624 28.608 16.352C24.64 18.016 21.152 20.352 18.144 23.36C15.2 26.304 12.864 29.76 11.136 33.728C9.472 37.632 8.64 41.856 8.64 46.4C8.64 50.88 9.472 55.104 11.136 59.072C12.864 63.04 15.2 66.528 18.144 69.536C21.152 72.48 24.64 74.816 28.608 76.544C32.576 78.208 36.8 79.04 41.28 79.04C44.288 79.04 47.2 78.656 50.016 77.888C52.896 77.056 55.584 75.904 58.08 74.432C60.576 72.96 62.848 71.168 64.896 69.056C66.944 66.944 68.672 64.576 70.08 61.952H71.136Z" fill="#083346"/>
</svg>
