<svg width="651" height="357" viewBox="0 0 651 357" fill="none" xmlns="http://www.w3.org/2000/svg">
<path d="M60.8394 186H120.645V205.2H74.455C81.0043 206.8 87.094 209.429 92.7241 213.086C98.3542 216.629 103.237 220.971 107.374 226.114C111.51 231.257 114.727 237.029 117.025 243.429C119.438 249.714 120.645 256.4 120.645 263.486C120.645 271.371 119.094 279.029 115.991 286.457C112.889 293.886 108.523 300.4 102.893 306H0V286.8H114.095C117.313 279.371 118.921 271.6 118.921 263.486C118.921 255.486 117.37 248 114.268 241.029C111.28 233.943 107.144 227.771 101.859 222.514C96.6882 217.257 90.541 213.086 83.4172 210C76.4083 206.914 68.8824 205.314 60.8394 205.2V186Z" fill="#DBD2C7"/>
<path d="M204.755 279.943C203.377 283.714 201.423 287.2 198.896 290.4C196.368 293.6 193.438 296.4 190.106 298.8C186.889 301.086 183.327 302.857 179.42 304.114C175.513 305.371 171.377 306 167.011 306C161.496 306 156.268 304.971 151.327 302.914C146.386 300.743 142.078 297.886 138.401 294.343C134.839 290.686 131.966 286.457 129.783 281.657C127.715 276.743 126.681 271.543 126.681 266.057C126.681 260.571 127.715 255.371 129.783 250.457C131.966 245.543 134.839 241.314 138.401 237.771C142.078 234.114 146.386 231.257 151.327 229.2C156.268 227.029 161.496 225.943 167.011 225.943C171.377 225.943 175.513 226.629 179.42 228C183.327 229.257 186.889 231.029 190.106 233.314C193.438 235.6 196.368 238.4 198.896 241.714C201.423 244.914 203.377 248.4 204.755 252.171H202.86C201.481 248.514 199.585 245.2 197.172 242.229C194.759 239.143 191.944 236.514 188.727 234.343C185.625 232.171 182.235 230.514 178.558 229.371C174.882 228.229 171.032 227.657 167.011 227.657C161.726 227.657 156.727 228.686 152.016 230.743C147.306 232.686 143.169 235.429 139.607 238.971C136.16 242.4 133.403 246.457 131.335 251.143C129.381 255.714 128.405 260.686 128.405 266.057C128.405 271.314 129.381 276.286 131.335 280.971C133.403 285.543 136.16 289.6 139.607 293.143C143.169 296.571 147.306 299.314 152.016 301.371C156.727 303.314 161.726 304.286 167.011 304.286C171.032 304.286 174.882 303.714 178.558 302.571C182.235 301.429 185.625 299.829 188.727 297.771C191.944 295.6 194.759 293.029 197.172 290.057C199.585 286.971 201.481 283.6 202.86 279.943H204.755Z" fill="#DBD2C7"/>
<path d="M235.522 186V239.824C235.522 243.56 233.109 246.686 235.522 243.257C238.049 239.714 240.979 236.686 244.311 234.171C247.644 231.543 251.378 229.543 255.514 228.171C259.651 226.686 264.017 225.943 268.613 225.943C269.187 225.943 269.704 226 270.164 226.114C270.738 226.114 271.313 226.114 271.887 226.114C275.449 226.343 278.839 227.086 282.056 228.343C285.273 229.486 288.318 231.029 291.191 232.971V306H281.539H271.887V227.829C271.313 227.714 270.738 227.657 270.164 227.657C269.704 227.657 269.187 227.657 268.613 227.657C263.327 227.657 258.329 228.629 253.618 230.571C249.022 232.514 244.943 235.2 241.382 238.629C237.935 242.057 236.106 244.646 235.522 250.8C234.888 257.471 235.637 260.286 235.522 265.543V306H210.703V186H235.522Z" fill="#DBD2C7"/>
<path d="M394.17 226.114C397.732 226.343 401.121 227.086 404.338 228.343C407.556 229.486 410.6 231.029 413.473 232.971V306H394.17V227.829C393.595 227.714 393.021 227.657 392.446 227.657C391.987 227.657 391.47 227.657 390.895 227.657C385.61 227.657 380.612 228.629 375.901 230.571C371.19 232.514 367.111 235.2 363.664 238.629C360.217 242.057 357.459 246.057 355.391 250.629C353.438 255.2 352.404 260.171 352.289 265.543V306H332.986V227.829C332.411 227.714 331.837 227.657 331.262 227.657C330.803 227.657 330.286 227.657 329.711 227.657C324.426 227.657 319.427 228.629 314.717 230.571C310.121 232.514 306.042 235.2 302.48 238.629C299.033 242.057 296.275 246.114 294.207 250.8C292.254 255.371 291.22 260.286 291.105 265.543V306H271.802V225.943H291.105V254.571C292.369 250.457 294.207 246.686 296.62 243.257C299.148 239.714 302.078 236.686 305.41 234.171C308.742 231.543 312.476 229.543 316.612 228.171C320.749 226.686 325.115 225.943 329.711 225.943C330.286 225.943 330.803 226 331.262 226.114C331.837 226.114 332.411 226.114 332.986 226.114C336.548 226.343 339.937 227.086 343.154 228.343C346.486 229.486 349.531 231.029 352.289 232.971V254.571C353.553 250.457 355.391 246.686 357.804 243.257C360.332 239.714 363.262 236.686 366.594 234.171C369.926 231.543 373.66 229.543 377.797 228.171C381.933 226.686 386.299 225.943 390.895 225.943C391.47 225.943 391.987 226 392.446 226.114C393.021 226.114 393.595 226.114 394.17 226.114Z" fill="#DBD2C7"/>
<path d="M424.909 306H423.201V225.943H424.909V306Z" fill="#DBD2C7"/>
<path d="M477.555 225.943C481.347 225.943 485.024 226.457 488.586 227.486C492.148 228.514 490.281 228.353 491.769 228.353V186H517.713V306H498.41V300.171C492.205 304.057 485.254 306 477.555 306C472.04 306 466.812 304.971 461.872 302.914C456.931 300.743 452.622 297.886 448.945 294.343C445.384 290.686 442.511 286.457 440.328 281.657C438.26 276.743 437.226 271.543 437.226 266.057C437.226 260.571 438.26 255.371 440.328 250.457C442.511 245.543 445.384 241.314 448.945 237.771C452.622 234.114 456.931 231.257 461.872 229.2C466.812 227.029 472.04 225.943 477.555 225.943ZM477.555 304.286C482.841 304.286 487.782 303.314 492.378 301.371C497.088 299.314 501.167 296.571 504.614 293.143C508.176 289.6 510.934 285.543 512.887 280.971C514.955 276.286 515.99 271.314 515.99 266.057C515.99 260.686 514.955 255.714 512.887 251.143C510.934 246.457 508.176 242.4 504.614 238.971C501.167 235.429 497.088 232.686 492.378 230.743C487.782 228.686 482.841 227.657 477.555 227.657C472.155 227.657 467.1 228.686 462.389 230.743C457.678 232.686 453.599 235.371 450.152 238.8C446.705 242.229 443.947 246.286 441.879 250.971C439.926 255.657 438.949 260.686 438.949 266.057C438.949 271.314 439.926 276.286 441.879 280.971C443.947 285.657 446.705 289.714 450.152 293.143C453.714 296.571 457.85 299.314 462.561 301.371C467.272 303.314 472.27 304.286 477.555 304.286Z" fill="#DBD2C7"/>
<path d="M576.259 284.4H577.982C576.259 287.714 574.133 290.743 571.605 293.486C569.078 296.114 566.263 298.4 563.16 300.343C560.058 302.171 556.726 303.6 553.164 304.629C549.602 305.543 545.983 306 542.306 306C538.744 306 535.527 305.6 532.654 304.8V227.657H521.796V225.943H532.654V222.176H551.958V225.943H651V227.657H551.958V303.086C557.243 301.714 561.954 299.429 566.09 296.229C570.227 293.029 573.616 289.086 576.259 284.4Z" fill="#DBD2C7"/>
<path fill-rule="evenodd" clip-rule="evenodd" d="M118 93C118 105.931 115.519 118.066 110.556 129.403C105.771 140.563 99.1244 150.394 90.6171 158.897C82.287 167.223 72.4504 173.866 61.1073 178.826C49.7642 183.609 37.7122 186 24.9512 186C22.2927 186 19.5455 185.911 16.7098 185.734C14.0512 185.38 11.4813 185.026 9 184.671V1.32857C11.4813 0.974289 14.0512 0.708578 16.7098 0.531438C19.5455 0.177146 22.2927 0 24.9512 0C37.7122 0 49.7642 2.48 61.1073 7.44C72.4504 12.2229 82.287 18.8657 90.6171 27.3686C99.1244 35.6943 105.771 45.5257 110.556 56.8629C115.519 68.0229 118 80.0686 118 93ZM115.607 93C115.607 81.84 113.658 71.2114 109.759 61.1143C105.859 51.0171 100.454 41.9829 93.5415 34.0114C86.8065 26.04 78.7423 19.3971 69.3488 14.0829C59.9553 8.76857 49.7642 5.31429 38.7756 3.72V182.28C49.7642 180.686 59.9553 177.231 69.3488 171.917C78.7423 166.603 86.8065 159.96 93.5415 151.989C100.454 144.017 105.859 134.983 109.759 124.886C113.658 114.789 115.607 104.16 115.607 93ZM235.821 186V132.116C235.821 124.715 234.359 117.7 231.434 111.071C228.664 104.441 224.816 98.7366 219.89 93.9572C215.119 89.0236 209.424 85.1692 202.805 82.394C196.34 79.4647 189.414 78 182.026 78C174.638 78 167.634 79.4647 161.016 82.394C154.397 85.1692 148.625 89.0236 143.7 93.9572C138.928 98.7366 135.08 104.441 132.156 111.071C129.385 117.7 128 124.715 128 132.116C128 139.516 129.385 146.531 132.156 153.161C135.08 159.636 138.928 165.34 143.7 170.274C148.625 175.054 154.397 178.908 161.016 181.837C167.634 184.612 174.638 186 182.026 186C192.339 186 201.651 183.379 209.962 178.137V186H235.821ZM201.882 179.756C195.725 182.377 189.106 183.687 182.026 183.687C174.946 183.687 168.25 182.377 161.939 179.756C155.629 176.981 150.088 173.281 145.316 168.655C140.698 164.03 137.004 158.557 134.234 152.236C131.617 145.914 130.309 139.208 130.309 132.116C130.309 124.869 131.617 118.086 134.234 111.764C137.004 105.443 140.698 99.97 145.316 95.3447C149.934 90.7195 155.398 87.0964 161.708 84.4754C168.019 81.7002 174.792 80.3126 182.026 80.3126C189.106 80.3126 195.725 81.7002 201.882 84.4754C208.192 87.0964 213.656 90.7966 218.274 95.576C223.046 100.201 226.74 105.675 229.356 111.996C232.127 118.163 233.512 124.869 233.512 132.116C233.512 139.208 232.127 145.914 229.356 152.236C226.74 158.403 223.046 163.876 218.274 168.655C213.656 173.281 208.192 176.981 201.882 179.756ZM505.895 81.2377C501.585 79.5418 496.968 78.5396 492.042 78.2313H489.733C489.118 78.0771 488.425 78 487.655 78C481.652 78 475.881 79.0021 470.339 81.0064C464.798 82.8565 459.719 85.5546 455.101 89.1006C450.638 92.4925 446.79 96.5782 443.557 101.358C440.325 105.983 437.862 111.071 436.169 116.621V78H410.311V186H436.169V131.422C436.323 124.33 437.708 117.7 440.325 111.533C443.096 105.212 446.79 99.7388 451.407 95.1135C456.025 90.4882 461.412 86.8651 467.569 84.2441C473.88 81.6231 480.575 80.3126 487.655 80.3126H489.733C490.503 80.3126 491.273 80.3897 492.042 80.5439V186H517.901V87.4818C514.207 84.8608 510.205 82.7794 505.895 81.2377ZM642 132.116V186H616.141V178.137C607.83 183.379 598.518 186 588.205 186C580.817 186 573.813 184.612 567.195 181.837C560.576 178.908 554.804 175.054 549.879 170.274C545.107 165.34 541.259 159.636 538.335 153.161C535.564 146.531 534.179 139.516 534.179 132.116C534.179 124.715 535.564 117.7 538.335 111.071C541.259 104.441 545.107 98.7366 549.879 93.9572C554.804 89.0236 560.576 85.1692 567.195 82.394C573.813 79.4647 580.817 78 588.205 78C595.593 78 602.52 79.4647 608.984 82.394C615.603 85.1692 621.298 89.0236 626.069 93.9572C630.995 98.7366 634.843 104.441 637.613 111.071C640.538 117.7 642 124.715 642 132.116ZM588.205 183.687C595.285 183.687 601.904 182.377 608.061 179.756C614.371 176.981 619.836 173.281 624.453 168.655C629.225 163.876 632.919 158.403 635.535 152.236C638.306 145.914 639.691 139.208 639.691 132.116C639.691 124.869 638.306 118.163 635.535 111.996C632.919 105.675 629.225 100.201 624.453 95.576C619.836 90.7966 614.371 87.0964 608.061 84.4754C601.904 81.7002 595.285 80.3126 588.205 80.3126C580.971 80.3126 574.198 81.7002 567.888 84.4754C561.577 87.0964 556.113 90.7195 551.495 95.3447C546.878 99.97 543.183 105.443 540.413 111.764C537.796 118.086 536.488 124.869 536.488 132.116C536.488 139.208 537.796 145.914 540.413 152.236C543.183 158.557 546.878 164.03 551.495 168.655C556.267 173.281 561.808 176.981 568.118 179.756C574.429 182.377 581.125 183.687 588.205 183.687ZM358.91 221.68C351.808 217.294 344.08 214.266 335.725 212.596C344.08 210.925 351.808 207.897 358.91 203.512C366.011 199.126 372.173 193.801 377.395 187.537C382.617 181.272 386.69 174.172 389.614 166.236C392.538 158.301 394 149.948 394 141.177C394 132.406 392.538 124.053 389.614 116.118C386.69 108.182 382.617 101.082 377.395 94.8172C372.173 88.3436 366.011 82.914 358.91 78.5287C351.808 74.1433 344.08 71.1153 335.725 69.4447C345.124 67.5652 353.688 64.1196 361.416 59.1077C369.145 53.887 375.619 47.5178 380.841 40H377.082C376.037 41.253 374.993 42.6104 373.948 44.0721C372.904 45.3251 371.755 46.4737 370.502 47.5178C364.236 53.9914 356.821 59.1077 348.258 62.8666C339.903 66.4167 330.817 68.1917 321 68.1917C310.974 68.1917 301.471 70.1756 292.489 74.1433C283.717 77.9022 275.989 83.1229 269.305 89.8054C262.83 96.279 257.608 104.006 253.639 112.985C249.88 121.756 248 131.153 248 141.177C248 151.201 249.88 160.702 253.639 169.682C257.608 178.453 262.83 186.179 269.305 192.862C275.989 199.335 283.717 204.556 292.489 208.524C301.471 212.283 310.974 214.162 321 214.162C330.817 214.162 339.903 215.937 348.258 219.487C356.821 223.246 364.236 228.258 370.502 234.523C376.768 240.788 381.677 248.201 385.227 256.763C388.987 265.325 390.867 274.409 390.867 284.015C390.867 293.83 388.987 302.914 385.227 311.267C381.677 319.829 376.768 327.242 370.502 333.507C364.236 339.772 356.821 344.679 348.258 348.229C339.903 351.988 330.817 353.868 321 353.868V357C331.026 357 340.425 355.016 349.197 351.048C358.179 347.29 365.907 342.069 372.382 335.386C379.066 328.913 384.288 321.186 388.047 312.207C392.016 303.436 394 294.039 394 284.015C394 275.244 392.538 266.891 389.614 258.956C386.69 251.02 382.617 243.92 377.395 237.655C372.173 231.39 366.011 226.065 358.91 221.68ZM348.258 205.705C339.903 209.255 330.817 211.03 321 211.03C311.392 211.03 302.306 209.255 293.742 205.705C285.388 201.946 277.973 196.934 271.498 190.669C265.232 184.195 260.219 176.782 256.459 168.429C252.908 159.867 251.133 150.783 251.133 141.177C251.133 131.571 252.908 122.487 256.459 113.925C260.219 105.363 265.232 97.9496 271.498 91.6848C277.764 85.2111 285.179 80.1993 293.742 76.6492C302.306 72.8903 311.392 71.0109 321 71.0109C330.817 71.0109 339.903 72.8903 348.258 76.6492C356.821 80.1993 364.236 85.2111 370.502 91.6848C376.768 97.9496 381.677 105.363 385.227 113.925C388.987 122.487 390.867 131.571 390.867 141.177C390.867 150.783 388.987 159.867 385.227 168.429C381.677 176.991 376.768 184.404 370.502 190.669C364.236 196.934 356.821 201.946 348.258 205.705Z" fill="#083346"/>
</svg>
