<svg width="232" height="102" viewBox="0 0 232 102" fill="none" xmlns="http://www.w3.org/2000/svg">
<path d="M90.4353 31.188C91.2273 31.188 91.9953 31.296 92.7393 31.512C93.4833 31.728 94.1673 32.028 94.7913 32.412V22.8H98.8233V48H94.7913V46.776C93.4953 47.592 92.0433 48 90.4353 48C89.2833 48 88.1913 47.784 87.1593 47.352C86.1273 46.896 85.2273 46.296 84.4593 45.552C83.7153 44.784 83.1153 43.896 82.6593 42.888C82.2273 41.856 82.0113 40.764 82.0113 39.612C82.0113 38.46 82.2273 37.368 82.6593 36.336C83.1153 35.304 83.7153 34.416 84.4593 33.672C85.2273 32.904 86.1273 32.304 87.1593 31.872C88.1913 31.416 89.2833 31.188 90.4353 31.188ZM90.4353 47.64C91.5393 47.64 92.5713 47.436 93.5313 47.028C94.5153 46.596 95.3673 46.02 96.0873 45.3C96.8313 44.556 97.4073 43.704 97.8153 42.744C98.2473 41.76 98.4633 40.716 98.4633 39.612C98.4633 38.484 98.2473 37.44 97.8153 36.48C97.4073 35.496 96.8313 34.644 96.0873 33.924C95.3673 33.18 94.5153 32.604 93.5313 32.196C92.5713 31.764 91.5393 31.548 90.4353 31.548C89.3073 31.548 88.2513 31.764 87.2673 32.196C86.2833 32.604 85.4313 33.168 84.7113 33.888C83.9913 34.608 83.4153 35.46 82.9833 36.444C82.5753 37.428 82.3713 38.484 82.3713 39.612C82.3713 40.716 82.5753 41.76 82.9833 42.744C83.4153 43.728 83.9913 44.58 84.7113 45.3C85.4553 46.02 86.3193 46.596 87.3033 47.028C88.2873 47.436 89.3313 47.64 90.4353 47.64ZM106.857 47.964C105.369 47.868 104.025 47.4 102.825 46.56V31.188H106.857V47.604C106.977 47.628 107.085 47.64 107.181 47.64C107.301 47.64 107.421 47.64 107.541 47.64C108.621 47.64 109.641 47.436 110.601 47.028C111.585 46.62 112.437 46.056 113.157 45.336C113.901 44.616 114.489 43.776 114.921 42.816C115.353 41.856 115.569 40.824 115.569 39.72V31.188H119.601V48H115.569V41.988C115.329 42.852 114.945 43.656 114.417 44.4C113.913 45.144 113.301 45.78 112.581 46.308C111.885 46.836 111.105 47.256 110.241 47.568C109.377 47.856 108.477 48 107.541 48C107.421 48 107.301 48 107.181 48C107.085 48 106.977 47.988 106.857 47.964ZM139.909 42.528C139.621 43.32 139.213 44.052 138.685 44.724C138.157 45.396 137.545 45.984 136.849 46.488C136.177 46.968 135.433 47.34 134.617 47.604C133.801 47.868 132.937 48 132.025 48C130.873 48 129.781 47.784 128.749 47.352C127.717 46.896 126.817 46.296 126.049 45.552C125.305 44.784 124.705 43.896 124.249 42.888C123.817 41.856 123.601 40.764 123.601 39.612C123.601 38.46 123.817 37.368 124.249 36.336C124.705 35.304 125.305 34.416 126.049 33.672C126.817 32.904 127.717 32.304 128.749 31.872C129.781 31.416 130.873 31.188 132.025 31.188C132.937 31.188 133.801 31.332 134.617 31.62C135.433 31.884 136.177 32.256 136.849 32.736C137.545 33.216 138.157 33.804 138.685 34.5C139.213 35.172 139.621 35.904 139.909 36.696H139.513C139.225 35.928 138.829 35.232 138.325 34.608C137.821 33.96 137.233 33.408 136.561 32.952C135.913 32.496 135.205 32.148 134.437 31.908C133.669 31.668 132.865 31.548 132.025 31.548C130.921 31.548 129.877 31.764 128.893 32.196C127.909 32.604 127.045 33.18 126.301 33.924C125.581 34.644 125.005 35.496 124.573 36.48C124.165 37.44 123.961 38.484 123.961 39.612C123.961 40.716 124.165 41.76 124.573 42.744C125.005 43.704 125.581 44.556 126.301 45.3C127.045 46.02 127.909 46.596 128.893 47.028C129.877 47.436 130.921 47.64 132.025 47.64C132.865 47.64 133.669 47.52 134.437 47.28C135.205 47.04 135.913 46.704 136.561 46.272C137.233 45.816 137.821 45.276 138.325 44.652C138.829 44.004 139.225 43.296 139.513 42.528H139.909ZM160.698 39.612V48H156.666V46.776C155.37 47.592 153.918 48 152.31 48C151.158 48 150.066 47.784 149.034 47.352C148.002 46.896 147.102 46.296 146.334 45.552C145.59 44.784 144.99 43.896 144.534 42.888C144.102 41.856 143.886 40.764 143.886 39.612C143.886 38.46 144.102 37.368 144.534 36.336C144.99 35.304 145.59 34.416 146.334 33.672C147.102 32.904 148.002 32.304 149.034 31.872C150.066 31.416 151.158 31.188 152.31 31.188C153.462 31.188 154.542 31.416 155.55 31.872C156.582 32.304 157.47 32.904 158.214 33.672C158.982 34.416 159.582 35.304 160.014 36.336C160.47 37.368 160.698 38.46 160.698 39.612ZM152.31 47.64C153.414 47.64 154.446 47.436 155.406 47.028C156.39 46.596 157.242 46.02 157.962 45.3C158.706 44.556 159.282 43.704 159.69 42.744C160.122 41.76 160.338 40.716 160.338 39.612C160.338 38.484 160.122 37.44 159.69 36.48C159.282 35.496 158.706 34.644 157.962 33.924C157.242 33.18 156.39 32.604 155.406 32.196C154.446 31.764 153.414 31.548 152.31 31.548C151.182 31.548 150.126 31.764 149.142 32.196C148.158 32.604 147.306 33.168 146.586 33.888C145.866 34.608 145.29 35.46 144.858 36.444C144.45 37.428 144.246 38.484 144.246 39.612C144.246 40.716 144.45 41.76 144.858 42.744C145.29 43.728 145.866 44.58 146.586 45.3C147.33 46.02 148.194 46.596 149.178 47.028C150.162 47.436 151.206 47.64 152.31 47.64ZM176.04 43.464H176.4C176.04 44.16 175.596 44.796 175.068 45.372C174.54 45.924 173.952 46.404 173.304 46.812C172.656 47.196 171.96 47.496 171.216 47.712C170.472 47.904 169.716 48 168.948 48C168.204 48 167.532 47.916 166.932 47.748V31.548H164.664V31.188H166.932V22.8H170.964V31.188H175.5V31.548H170.964V47.388C172.068 47.1 173.052 46.62 173.916 45.948C174.78 45.276 175.488 44.448 176.04 43.464ZM184.41 48H180.378V31.188H184.41V48ZM205.171 39.612C205.171 40.764 204.943 41.856 204.487 42.888C204.055 43.896 203.455 44.784 202.687 45.552C201.943 46.296 201.055 46.896 200.023 47.352C199.015 47.784 197.935 48 196.783 48C195.631 48 194.539 47.784 193.507 47.352C192.475 46.896 191.575 46.296 190.807 45.552C190.063 44.784 189.463 43.896 189.007 42.888C188.575 41.856 188.359 40.764 188.359 39.612C188.359 38.46 188.575 37.368 189.007 36.336C189.463 35.304 190.063 34.416 190.807 33.672C191.575 32.904 192.475 32.304 193.507 31.872C194.539 31.416 195.631 31.188 196.783 31.188C197.935 31.188 199.015 31.416 200.023 31.872C201.055 32.304 201.943 32.904 202.687 33.672C203.455 34.416 204.055 35.304 204.487 36.336C204.943 37.368 205.171 38.46 205.171 39.612ZM204.811 39.612C204.811 38.484 204.595 37.44 204.163 36.48C203.755 35.496 203.191 34.644 202.471 33.924C201.751 33.18 200.899 32.604 199.915 32.196C198.955 31.764 197.911 31.548 196.783 31.548C195.655 31.548 194.599 31.764 193.615 32.196C192.631 32.604 191.779 33.168 191.059 33.888C190.339 34.608 189.763 35.46 189.331 36.444C188.923 37.428 188.719 38.484 188.719 39.612C188.719 40.716 188.923 41.76 189.331 42.744C189.763 43.728 190.339 44.58 191.059 45.3C191.803 46.02 192.667 46.596 193.651 47.028C194.635 47.436 195.679 47.64 196.783 47.64C197.887 47.64 198.919 47.436 199.879 47.028C200.863 46.596 201.715 46.02 202.435 45.3C203.179 44.556 203.755 43.704 204.163 42.744C204.595 41.76 204.811 40.716 204.811 39.612ZM221.916 31.224C222.684 31.272 223.404 31.428 224.076 31.692C224.748 31.932 225.372 32.256 225.948 32.664V48H221.916V31.584C221.796 31.56 221.676 31.548 221.556 31.548C221.46 31.548 221.352 31.548 221.232 31.548C220.128 31.548 219.084 31.752 218.1 32.16C217.14 32.568 216.3 33.132 215.58 33.852C214.86 34.572 214.284 35.424 213.852 36.408C213.444 37.368 213.228 38.4 213.204 39.504V48H209.172V31.188H213.204V37.2C213.468 36.336 213.852 35.544 214.356 34.824C214.86 34.08 215.46 33.444 216.156 32.916C216.876 32.364 217.668 31.944 218.532 31.656C219.396 31.344 220.296 31.188 221.232 31.188C221.352 31.188 221.46 31.2 221.556 31.224C221.676 31.224 221.796 31.224 221.916 31.224Z" fill="#083346"/>
<path d="M74.88 9.8V20.552H10.272C11.36 23.88 12.928 26.92 14.976 29.672C17.024 32.424 19.392 34.792 22.08 36.776C24.832 38.696 27.84 40.2 31.104 41.288C34.368 42.376 37.76 42.92 41.28 42.92V43.88C37.76 43.88 34.368 44.424 31.104 45.512C27.84 46.536 24.832 48.04 22.08 50.024C19.392 52.008 17.024 54.376 14.976 57.128C12.992 59.816 11.424 62.856 10.272 66.248H74.88V77H7.68V76.52C7.68 72.424 8.384 68.552 9.792 64.904C11.2 61.192 13.152 57.864 15.648 54.92C18.144 51.976 21.088 49.512 24.48 47.528C27.936 45.48 31.68 44.104 35.712 43.4C31.68 42.696 27.936 41.352 24.48 39.368C21.088 37.32 18.144 34.824 15.648 31.88C13.152 28.936 11.2 25.64 9.792 21.992C8.384 18.28 7.68 14.376 7.68 10.28V9.8H74.88Z" fill="#083346"/>
</svg>
