<svg width="124" height="107" viewBox="0 0 124 107" fill="none" xmlns="http://www.w3.org/2000/svg">
<path d="M88.404 39.792V39.432H96.468C96.444 38.328 96.216 37.296 95.784 36.336C95.352 35.376 94.776 34.548 94.056 33.852C93.336 33.132 92.484 32.568 91.5 32.16C90.54 31.752 89.508 31.548 88.404 31.548C87.3 31.548 86.256 31.764 85.272 32.196C84.288 32.604 83.424 33.18 82.68 33.924C81.96 34.644 81.384 35.496 80.952 36.48C80.544 37.44 80.34 38.484 80.34 39.612C80.34 40.716 80.544 41.76 80.952 42.744C81.384 43.704 81.96 44.556 82.68 45.3C83.424 46.02 84.288 46.596 85.272 47.028C86.256 47.436 87.3 47.64 88.404 47.64C90.108 47.64 91.632 47.184 92.976 46.272C94.32 45.336 95.304 44.088 95.928 42.528H96.288C96 43.32 95.592 44.052 95.064 44.724C94.536 45.396 93.924 45.984 93.228 46.488C92.556 46.968 91.812 47.34 90.996 47.604C90.18 47.868 89.316 48 88.404 48C87.252 48 86.16 47.784 85.128 47.352C84.12 46.896 83.232 46.296 82.464 45.552C81.72 44.784 81.12 43.896 80.664 42.888C80.232 41.856 80.016 40.764 80.016 39.612C80.016 38.46 80.232 37.368 80.664 36.336C81.12 35.304 81.72 34.416 82.464 33.672C83.232 32.904 84.12 32.304 85.128 31.872C86.16 31.416 87.252 31.188 88.404 31.188C89.604 31.188 90.72 31.416 91.752 31.872C92.784 32.328 93.672 32.94 94.416 33.708C95.16 34.476 95.736 35.388 96.144 36.444C96.576 37.476 96.792 38.592 96.792 39.792H88.404ZM107.057 31.188H111.089V47.748C110.489 47.916 109.817 48 109.073 48C108.065 48 107.105 47.832 106.193 47.496C105.281 47.16 104.453 46.692 103.709 46.092C102.989 45.492 102.377 44.784 101.873 43.968C101.369 43.128 101.021 42.216 100.829 41.232H101.153C101.489 42.744 102.173 44.052 103.205 45.156C104.261 46.26 105.545 47.004 107.057 47.388V31.188ZM116.11 43.428V22.8H120.142V43.428H116.11ZM118.126 46.308C118.366 46.308 118.558 46.392 118.702 46.56C118.87 46.728 118.954 46.932 118.954 47.172C118.954 47.388 118.87 47.58 118.702 47.748C118.558 47.916 118.366 48 118.126 48C117.886 48 117.682 47.916 117.514 47.748C117.346 47.58 117.262 47.388 117.262 47.172C117.262 46.932 117.346 46.728 117.514 46.56C117.682 46.392 117.886 46.308 118.126 46.308Z" fill="#083346"/>
<path d="M64.224 14.8H74.976V82H64.224V53.488C61.216 50.608 57.76 48.336 53.856 46.672C49.952 45.008 45.792 44.176 41.376 44.176C36.896 44.176 32.704 45.008 28.8 46.672C24.896 48.336 21.472 50.608 18.528 53.488V82H7.776V14.8H18.528V52.24C21.536 49.424 24.992 47.216 28.896 45.616C32.8 44.016 36.96 43.216 41.376 43.216C45.792 43.216 49.92 44.016 53.76 45.616C57.664 47.216 61.152 49.424 64.224 52.24V14.8Z" fill="#083346"/>
</svg>
