<svg width="24" height="24" viewBox="0 0 24 24" fill="none" xmlns="http://www.w3.org/2000/svg">
<path d="M9.612 4.78806C9.612 5.46006 9.48 6.09606 9.216 6.69606C8.976 7.27206 8.64 7.77606 8.208 8.20806C7.776 8.64006 7.26 8.98806 6.66 9.25206C6.084 9.49206 5.472 9.61206 4.824 9.61206C4.152 9.61206 3.516 9.49206 2.916 9.25206C2.34 8.98806 1.836 8.64006 1.404 8.20806C0.972 7.77606 0.624 7.27206 0.36 6.69606C0.12 6.09606 0 5.46006 0 4.78806C0 4.14006 0.12 3.52806 0.36 2.95206C0.624 2.35206 0.972 1.83606 1.404 1.40406C1.836 0.972062 2.34 0.636062 2.916 0.396062C3.516 0.132061 4.152 6.10352e-05 4.824 6.10352e-05C5.472 6.10352e-05 6.084 0.132061 6.66 0.396062C7.26 0.636062 7.776 0.972062 8.208 1.40406C8.64 1.83606 8.976 2.35206 9.216 2.95206C9.48 3.52806 9.612 4.14006 9.612 4.78806ZM9.252 4.78806C9.252 4.16406 9.132 3.58806 8.892 3.06006C8.676 2.53206 8.364 2.06406 7.956 1.65606C7.548 1.24806 7.08 0.936063 6.552 0.720062C6.024 0.480061 5.448 0.360061 4.824 0.360061C4.224 0.360061 3.648 0.480061 3.096 0.720062C2.544 0.936063 2.064 1.24806 1.656 1.65606C1.272 2.04006 0.96 2.50806 0.72 3.06006C0.48 3.58806 0.36 4.16406 0.36 4.78806C0.36 5.41206 0.468 6.00006 0.684 6.55206C0.924 7.08006 1.248 7.54806 1.656 7.95606C2.064 8.36406 2.532 8.68806 3.06 8.92806C3.612 9.14406 4.2 9.25206 4.824 9.25206C5.448 9.25206 6.024 9.13206 6.552 8.89206C7.08 8.65206 7.548 8.34006 7.956 7.95606C8.364 7.54806 8.676 7.06806 8.892 6.51606C9.132 5.96406 9.252 5.38806 9.252 4.78806Z" fill="#083346"/>
<path d="M23.624 4.78806C23.624 5.46006 23.492 6.09606 23.228 6.69606C22.988 7.27206 22.652 7.77606 22.22 8.20806C21.788 8.64006 21.272 8.98806 20.672 9.25206C20.096 9.49206 19.484 9.61206 18.836 9.61206C18.164 9.61206 17.528 9.49206 16.928 9.25206C16.352 8.98806 15.848 8.64006 15.416 8.20806C14.984 7.77606 14.636 7.27206 14.372 6.69606C14.132 6.09606 14.012 5.46006 14.012 4.78806C14.012 4.14006 14.132 3.52806 14.372 2.95206C14.636 2.35206 14.984 1.83606 15.416 1.40406C15.848 0.972062 16.352 0.636062 16.928 0.396062C17.528 0.132061 18.164 6.10352e-05 18.836 6.10352e-05C19.484 6.10352e-05 20.096 0.132061 20.672 0.396062C21.272 0.636062 21.788 0.972062 22.22 1.40406C22.652 1.83606 22.988 2.35206 23.228 2.95206C23.492 3.52806 23.624 4.14006 23.624 4.78806ZM23.264 4.78806C23.264 4.16406 23.144 3.58806 22.904 3.06006C22.688 2.53206 22.376 2.06406 21.968 1.65606C21.56 1.24806 21.092 0.936063 20.564 0.720062C20.036 0.480061 19.46 0.360061 18.836 0.360061C18.236 0.360061 17.66 0.480061 17.108 0.720062C16.556 0.936063 16.076 1.24806 15.668 1.65606C15.284 2.04006 14.972 2.50806 14.732 3.06006C14.492 3.58806 14.372 4.16406 14.372 4.78806C14.372 5.41206 14.48 6.00006 14.696 6.55206C14.936 7.08006 15.26 7.54806 15.668 7.95606C16.076 8.36406 16.544 8.68806 17.072 8.92806C17.624 9.14406 18.212 9.25206 18.836 9.25206C19.46 9.25206 20.036 9.13206 20.564 8.89206C21.092 8.65206 21.56 8.34006 21.968 7.95606C22.376 7.54806 22.688 7.06806 22.904 6.51606C23.144 5.96406 23.264 5.38806 23.264 4.78806Z" fill="#083346"/>
<path d="M9.612 18.9881C9.612 19.6601 9.48 20.2961 9.216 20.8961C8.976 21.4721 8.64 21.9761 8.208 22.4081C7.776 22.8401 7.26 23.1881 6.66 23.4521C6.084 23.6921 5.472 23.8121 4.824 23.8121C4.152 23.8121 3.516 23.6921 2.916 23.4521C2.34 23.1881 1.836 22.8401 1.404 22.4081C0.972 21.9761 0.624 21.4721 0.36 20.8961C0.12 20.2961 0 19.6601 0 18.9881C0 18.3401 0.12 17.7281 0.36 17.1521C0.624 16.5521 0.972 16.0361 1.404 15.6041C1.836 15.1721 2.34 14.8361 2.916 14.5961C3.516 14.3321 4.152 14.2001 4.824 14.2001C5.472 14.2001 6.084 14.3321 6.66 14.5961C7.26 14.8361 7.776 15.1721 8.208 15.6041C8.64 16.0361 8.976 16.5521 9.216 17.1521C9.48 17.7281 9.612 18.3401 9.612 18.9881ZM9.252 18.9881C9.252 18.3641 9.132 17.7881 8.892 17.2601C8.676 16.7321 8.364 16.2641 7.956 15.8561C7.548 15.4481 7.08 15.1361 6.552 14.9201C6.024 14.6801 5.448 14.5601 4.824 14.5601C4.224 14.5601 3.648 14.6801 3.096 14.9201C2.544 15.1361 2.064 15.4481 1.656 15.8561C1.272 16.2401 0.96 16.7081 0.72 17.2601C0.48 17.7881 0.36 18.3641 0.36 18.9881C0.36 19.6121 0.468 20.2001 0.684 20.7521C0.924 21.2801 1.248 21.7481 1.656 22.1561C2.064 22.5641 2.532 22.8881 3.06 23.1281C3.612 23.3441 4.2 23.4521 4.824 23.4521C5.448 23.4521 6.024 23.3321 6.552 23.0921C7.08 22.8521 7.548 22.5401 7.956 22.1561C8.364 21.7481 8.676 21.2681 8.892 20.7161C9.132 20.1641 9.252 19.5881 9.252 18.9881Z" fill="#083346"/>
<path d="M23.624 18.9881C23.624 19.6601 23.492 20.2961 23.228 20.8961C22.988 21.4721 22.652 21.9761 22.22 22.4081C21.788 22.8401 21.272 23.1881 20.672 23.4521C20.096 23.6921 19.484 23.8121 18.836 23.8121C18.164 23.8121 17.528 23.6921 16.928 23.4521C16.352 23.1881 15.848 22.8401 15.416 22.4081C14.984 21.9761 14.636 21.4721 14.372 20.8961C14.132 20.2961 14.012 19.6601 14.012 18.9881C14.012 18.3401 14.132 17.7281 14.372 17.1521C14.636 16.5521 14.984 16.0361 15.416 15.6041C15.848 15.1721 16.352 14.8361 16.928 14.5961C17.528 14.3321 18.164 14.2001 18.836 14.2001C19.484 14.2001 20.096 14.3321 20.672 14.5961C21.272 14.8361 21.788 15.1721 22.22 15.6041C22.652 16.0361 22.988 16.5521 23.228 17.1521C23.492 17.7281 23.624 18.3401 23.624 18.9881ZM23.264 18.9881C23.264 18.3641 23.144 17.7881 22.904 17.2601C22.688 16.7321 22.376 16.2641 21.968 15.8561C21.56 15.4481 21.092 15.1361 20.564 14.9201C20.036 14.6801 19.46 14.5601 18.836 14.5601C18.236 14.5601 17.66 14.6801 17.108 14.9201C16.556 15.1361 16.076 15.4481 15.668 15.8561C15.284 16.2401 14.972 16.7081 14.732 17.2601C14.492 17.7881 14.372 18.3641 14.372 18.9881C14.372 19.6121 14.48 20.2001 14.696 20.7521C14.936 21.2801 15.26 21.7481 15.668 22.1561C16.076 22.5641 16.544 22.8881 17.072 23.1281C17.624 23.3441 18.212 23.4521 18.836 23.4521C19.46 23.4521 20.036 23.3321 20.564 23.0921C21.092 22.8521 21.56 22.5401 21.968 22.1561C22.376 21.7481 22.688 21.2681 22.904 20.7161C23.144 20.1641 23.264 19.5881 23.264 18.9881Z" fill="#083346"/>
</svg>
