<svg width="172" height="126" viewBox="0 0 172 126" fill="none" xmlns="http://www.w3.org/2000/svg">
<path d="M58.792 63.612C58.792 64.764 58.564 65.856 58.108 66.888C57.676 67.896 57.076 68.784 56.308 69.552C55.564 70.296 54.676 70.896 53.644 71.352C52.636 71.784 51.556 72 50.404 72C49.252 72 48.16 71.784 47.128 71.352C46.096 70.896 45.196 70.296 44.428 69.552C43.684 68.784 43.084 67.896 42.628 66.888C42.196 65.856 41.98 64.764 41.98 63.612C41.98 62.46 42.196 61.368 42.628 60.336C43.084 59.304 43.684 58.416 44.428 57.672C45.196 56.904 46.096 56.304 47.128 55.872C48.16 55.416 49.252 55.188 50.404 55.188C51.556 55.188 52.636 55.416 53.644 55.872C54.676 56.304 55.564 56.904 56.308 57.672C57.076 58.416 57.676 59.304 58.108 60.336C58.564 61.368 58.792 62.46 58.792 63.612ZM58.432 63.612C58.432 62.484 58.216 61.44 57.784 60.48C57.376 59.496 56.812 58.644 56.092 57.924C55.372 57.18 54.52 56.604 53.536 56.196C52.576 55.764 51.532 55.548 50.404 55.548C49.276 55.548 48.22 55.764 47.236 56.196C46.252 56.604 45.4 57.168 44.68 57.888C43.96 58.608 43.384 59.46 42.952 60.444C42.544 61.428 42.34 62.484 42.34 63.612C42.34 64.716 42.544 65.76 42.952 66.744C43.384 67.728 43.96 68.58 44.68 69.3C45.424 70.02 46.288 70.596 47.272 71.028C48.256 71.436 49.3 71.64 50.404 71.64C51.508 71.64 52.54 71.436 53.5 71.028C54.484 70.596 55.336 70.02 56.056 69.3C56.8 68.556 57.376 67.704 57.784 66.744C58.216 65.76 58.432 64.716 58.432 63.612ZM71.1813 55.188C72.6453 55.188 73.9893 55.536 75.2133 56.232C76.4373 56.904 77.4213 57.816 78.1653 58.968H77.7693C76.9773 57.888 76.0173 57.048 74.8893 56.448C73.7853 55.848 72.5493 55.548 71.1813 55.548C70.3653 55.548 69.5853 55.668 68.8413 55.908C68.1213 56.124 67.4493 56.436 66.8253 56.844V72H62.7933V63.612C62.7933 62.46 63.0093 61.368 63.4413 60.336C63.8973 59.304 64.4973 58.416 65.2413 57.672C66.0093 56.904 66.8973 56.304 67.9053 55.872C68.9373 55.416 70.0293 55.188 71.1813 55.188ZM92.0982 67.464H92.4582C92.0982 68.16 91.6542 68.796 91.1262 69.372C90.5982 69.924 90.0102 70.404 89.3622 70.812C88.7142 71.196 88.0182 71.496 87.2742 71.712C86.5302 71.904 85.7742 72 85.0062 72C84.2622 72 83.5902 71.916 82.9902 71.748V55.548H80.7222V55.188H82.9902V46.8H87.0222V55.188H91.5582V55.548H87.0222V71.388C88.1262 71.1 89.1102 70.62 89.9742 69.948C90.8382 69.276 91.5462 68.448 92.0982 67.464ZM102.737 47.412V55.188H107.273V55.548H102.737V72H98.705V55.548H96.437V55.188H98.705V47.052C99.305 46.884 99.977 46.8 100.721 46.8C101.489 46.8 102.245 46.908 102.989 47.124C103.733 47.316 104.429 47.616 105.077 48.024C105.725 48.408 106.313 48.888 106.841 49.464C107.369 50.016 107.813 50.64 108.173 51.336H107.813C107.261 50.352 106.553 49.524 105.689 48.852C104.825 48.18 103.841 47.7 102.737 47.412ZM126.573 63.612C126.573 64.764 126.345 65.856 125.889 66.888C125.457 67.896 124.857 68.784 124.089 69.552C123.345 70.296 122.457 70.896 121.425 71.352C120.417 71.784 119.337 72 118.185 72C117.033 72 115.941 71.784 114.909 71.352C113.877 70.896 112.977 70.296 112.209 69.552C111.465 68.784 110.865 67.896 110.409 66.888C109.977 65.856 109.761 64.764 109.761 63.612C109.761 62.46 109.977 61.368 110.409 60.336C110.865 59.304 111.465 58.416 112.209 57.672C112.977 56.904 113.877 56.304 114.909 55.872C115.941 55.416 117.033 55.188 118.185 55.188C119.337 55.188 120.417 55.416 121.425 55.872C122.457 56.304 123.345 56.904 124.089 57.672C124.857 58.416 125.457 59.304 125.889 60.336C126.345 61.368 126.573 62.46 126.573 63.612ZM126.213 63.612C126.213 62.484 125.997 61.44 125.565 60.48C125.157 59.496 124.593 58.644 123.873 57.924C123.153 57.18 122.301 56.604 121.317 56.196C120.357 55.764 119.313 55.548 118.185 55.548C117.057 55.548 116.001 55.764 115.017 56.196C114.033 56.604 113.181 57.168 112.461 57.888C111.741 58.608 111.165 59.46 110.733 60.444C110.325 61.428 110.121 62.484 110.121 63.612C110.121 64.716 110.325 65.76 110.733 66.744C111.165 67.728 111.741 68.58 112.461 69.3C113.205 70.02 114.069 70.596 115.053 71.028C116.037 71.436 117.081 71.64 118.185 71.64C119.289 71.64 120.321 71.436 121.281 71.028C122.265 70.596 123.117 70.02 123.837 69.3C124.581 68.556 125.157 67.704 125.565 66.744C125.997 65.76 126.213 64.716 126.213 63.612ZM134.607 71.388C136.095 71.004 137.367 70.26 138.423 69.156C139.479 68.052 140.163 66.744 140.475 65.232H140.835C140.643 66.216 140.283 67.128 139.755 67.968C139.251 68.784 138.627 69.492 137.883 70.092C137.163 70.692 136.347 71.16 135.435 71.496C134.547 71.832 133.599 72 132.591 72C131.847 72 131.175 71.916 130.575 71.748V55.188H134.607V71.388ZM148.844 72H144.812V55.188H148.844V72ZM169.605 63.612C169.605 64.764 169.377 65.856 168.921 66.888C168.489 67.896 167.889 68.784 167.121 69.552C166.377 70.296 165.489 70.896 164.457 71.352C163.449 71.784 162.369 72 161.217 72C160.065 72 158.973 71.784 157.941 71.352C156.909 70.896 156.009 70.296 155.241 69.552C154.497 68.784 153.897 67.896 153.441 66.888C153.009 65.856 152.793 64.764 152.793 63.612C152.793 62.46 153.009 61.368 153.441 60.336C153.897 59.304 154.497 58.416 155.241 57.672C156.009 56.904 156.909 56.304 157.941 55.872C158.973 55.416 160.065 55.188 161.217 55.188C162.369 55.188 163.449 55.416 164.457 55.872C165.489 56.304 166.377 56.904 167.121 57.672C167.889 58.416 168.489 59.304 168.921 60.336C169.377 61.368 169.605 62.46 169.605 63.612ZM169.245 63.612C169.245 62.484 169.029 61.44 168.597 60.48C168.189 59.496 167.625 58.644 166.905 57.924C166.185 57.18 165.333 56.604 164.349 56.196C163.389 55.764 162.345 55.548 161.217 55.548C160.089 55.548 159.033 55.764 158.049 56.196C157.065 56.604 156.213 57.168 155.493 57.888C154.773 58.608 154.197 59.46 153.765 60.444C153.357 61.428 153.153 62.484 153.153 63.612C153.153 64.716 153.357 65.76 153.765 66.744C154.197 67.728 154.773 68.58 155.493 69.3C156.237 70.02 157.101 70.596 158.085 71.028C159.069 71.436 160.113 71.64 161.217 71.64C162.321 71.64 163.353 71.436 164.313 71.028C165.297 70.596 166.149 70.02 166.869 69.3C167.613 68.556 168.189 67.704 168.597 66.744C169.029 65.76 169.245 64.716 169.245 63.612Z" fill="#083346"/>
<path d="M13.44 0.967995C18.112 0.967995 22.464 1.86399 26.496 3.65599C30.592 5.384 34.144 7.78399 37.152 10.856C40.224 13.864 42.624 17.416 44.352 21.512C46.144 25.608 47.04 29.96 47.04 34.568C47.04 38.792 46.304 42.792 44.832 46.568C43.36 50.344 41.344 53.704 38.784 56.648C36.288 59.592 33.28 62.056 29.76 64.04C26.304 65.96 22.56 67.24 18.528 67.88V101.096H7.776V33.8H18.528V66.92C22.496 66.344 26.144 65.096 29.472 63.176C32.864 61.192 35.776 58.76 38.208 55.88C40.704 53 42.656 49.736 44.064 46.088C45.472 42.44 46.176 38.6 46.176 34.568C46.176 30.024 45.312 25.8 43.584 21.896C41.856 17.928 39.52 14.472 36.576 11.528C33.632 8.52 30.176 6.184 26.208 4.52C22.24 2.792 17.984 1.92799 13.44 1.92799C12.48 1.92799 11.52 1.99199 10.56 2.11999C9.6 2.18399 8.672 2.27999 7.776 2.40799V1.44799C8.672 1.32 9.6 1.224 10.56 1.15999C11.52 1.03199 12.48 0.967995 13.44 0.967995Z" fill="#083346"/>
</svg>
