<svg width="220" height="107" viewBox="0 0 220 107" fill="none" xmlns="http://www.w3.org/2000/svg">
<path d="M95.2603 31.188C94.7083 32.172 93.9763 33.012 93.0643 33.708C92.1523 34.38 91.1323 34.86 90.0043 35.148V48H85.9723V35.148C84.8443 34.86 83.8243 34.38 82.9123 33.708C82.0243 33.012 81.2923 32.172 80.7163 31.188H81.1123C81.9043 32.388 82.8883 33.336 84.0643 34.032C85.2403 34.704 86.5483 35.04 87.9883 35.04C89.4523 35.04 90.7603 34.704 91.9123 34.032C93.0883 33.336 94.0723 32.388 94.8643 31.188H95.2603ZM121.17 31.188H129.45V35.22H123.474C124.338 35.484 125.13 35.88 125.85 36.408C126.594 36.912 127.23 37.512 127.758 38.208C128.286 38.904 128.694 39.684 128.982 40.548C129.294 41.412 129.45 42.324 129.45 43.284V43.968C129.306 45.48 128.826 46.824 128.01 48H112.674V43.968H129.09C129.09 43.848 129.09 43.74 129.09 43.644C129.114 43.524 129.126 43.404 129.126 43.284C129.126 42.18 128.91 41.148 128.478 40.188C128.07 39.204 127.506 38.352 126.786 37.632C126.066 36.912 125.226 36.336 124.266 35.904C123.306 35.472 122.274 35.244 121.17 35.22V31.188ZM139.211 39.612C140.219 39.828 141.131 40.2 141.947 40.728C142.787 41.232 143.495 41.856 144.071 42.6C144.647 43.344 145.091 44.184 145.403 45.12C145.739 46.032 145.907 46.992 145.907 48H145.547C145.547 47.952 145.547 47.928 145.547 47.928C145.571 47.904 145.583 47.868 145.583 47.82C145.583 46.716 145.367 45.672 144.935 44.688C144.527 43.704 143.951 42.852 143.207 42.132C142.487 41.388 141.635 40.812 140.651 40.404C139.667 39.972 138.623 39.756 137.519 39.756V48H133.487V22.8H137.519V39.432C138.623 39.432 139.667 39.228 140.651 38.82C141.635 38.388 142.487 37.812 143.207 37.092C143.951 36.348 144.527 35.484 144.935 34.5C145.367 33.516 145.583 32.472 145.583 31.368C145.583 31.32 145.571 31.296 145.547 31.296C145.547 31.272 145.547 31.236 145.547 31.188H145.907C145.907 32.196 145.739 33.168 145.403 34.104C145.091 35.04 144.647 35.88 144.071 36.624C143.495 37.368 142.787 38.004 141.947 38.532C141.131 39.036 140.219 39.396 139.211 39.612ZM153.936 48H149.904V31.188H153.936V48ZM161.952 47.388C163.44 47.004 164.712 46.26 165.768 45.156C166.824 44.052 167.508 42.744 167.82 41.232H168.18C167.988 42.216 167.628 43.128 167.1 43.968C166.596 44.784 165.972 45.492 165.228 46.092C164.508 46.692 163.692 47.16 162.78 47.496C161.892 47.832 160.944 48 159.936 48C159.192 48 158.52 47.916 157.92 47.748V31.188H161.952V47.388ZM176.226 47.388C177.714 47.004 178.986 46.26 180.042 45.156C181.098 44.052 181.782 42.744 182.094 41.232H182.454C182.262 42.216 181.902 43.128 181.374 43.968C180.87 44.784 180.246 45.492 179.502 46.092C178.782 46.692 177.966 47.16 177.054 47.496C176.166 47.832 175.218 48 174.21 48C173.466 48 172.794 47.916 172.194 47.748V31.188H176.226V47.388ZM194.963 31.188H203.243V35.22H197.267C198.131 35.484 198.923 35.88 199.643 36.408C200.387 36.912 201.023 37.512 201.551 38.208C202.079 38.904 202.487 39.684 202.775 40.548C203.087 41.412 203.243 42.324 203.243 43.284V43.968C203.099 45.48 202.619 46.824 201.803 48H186.467V43.968H202.883C202.883 43.848 202.883 43.74 202.883 43.644C202.907 43.524 202.919 43.404 202.919 43.284C202.919 42.18 202.703 41.148 202.271 40.188C201.863 39.204 201.299 38.352 200.579 37.632C199.859 36.912 199.019 36.336 198.059 35.904C197.099 35.472 196.067 35.244 194.963 35.22V31.188Z" fill="#083346"/>
<path d="M74.688 14.8H74.88V82H64.128V17.488C60.8 18.64 57.76 20.24 55.008 22.288C52.32 24.336 50.016 26.704 48.096 29.392C46.176 32.08 44.672 35.056 43.584 38.32C42.56 41.52 42.048 44.88 42.048 48.4H40.512C40.512 44.88 39.968 41.52 38.88 38.32C37.856 35.056 36.384 32.08 34.464 29.392C32.544 26.704 30.208 24.336 27.456 22.288C24.768 20.24 21.76 18.64 18.432 17.488V82H7.68V14.8H7.872C12.096 14.8 16.128 15.568 19.968 17.104C23.808 18.576 27.232 20.656 30.24 23.344C33.248 26.032 35.712 29.2 37.632 32.848C39.616 36.496 40.832 40.464 41.28 44.752C41.728 40.464 42.912 36.496 44.832 32.848C46.816 29.2 49.312 26.032 52.32 23.344C55.328 20.656 58.752 18.576 62.592 17.104C66.432 15.568 70.464 14.8 74.688 14.8Z" fill="#083346"/>
</svg>
