<svg width="40" height="45" viewBox="0 0 40 45" fill="none" xmlns="http://www.w3.org/2000/svg">
<path d="M39.744 12.2322H39.04C37.4187 9.24553 35.2427 6.7922 32.512 4.8722C29.824 2.90953 26.7947 1.65086 23.424 1.0962V45.0002H16.256V1.0962C12.928 1.69353 9.89867 2.97353 7.168 4.9362C4.48 6.8562 2.32533 9.2882 0.704 12.2322H0C1.62133 9.1602 3.84 6.57886 6.656 4.4882C9.51467 2.39753 12.7147 1.05353 16.256 0.456196C16.8533 0.370864 17.4507 0.306863 18.048 0.264194C18.6453 0.221528 19.2427 0.200195 19.84 0.200195C21.9307 0.200195 23.9573 0.477529 25.92 1.0322C27.8827 1.58686 29.7173 2.39753 31.424 3.4642C33.1733 4.4882 34.752 5.74686 36.16 7.2402C37.568 8.69086 38.7627 10.3549 39.744 12.2322Z" fill="#F2E5D7"/>
</svg>
