<svg width="172" height="102" viewBox="0 0 172 102" fill="none" xmlns="http://www.w3.org/2000/svg">
<path d="M108.792 39.612C108.792 40.764 108.564 41.856 108.108 42.888C107.676 43.896 107.076 44.784 106.308 45.552C105.564 46.296 104.676 46.896 103.644 47.352C102.636 47.784 101.556 48 100.404 48C99.252 48 98.16 47.784 97.128 47.352C96.096 46.896 95.196 46.296 94.428 45.552C93.684 44.784 93.084 43.896 92.628 42.888C92.196 41.856 91.98 40.764 91.98 39.612C91.98 38.46 92.196 37.368 92.628 36.336C93.084 35.304 93.684 34.416 94.428 33.672C95.196 32.904 96.096 32.304 97.128 31.872C98.16 31.416 99.252 31.188 100.404 31.188C101.556 31.188 102.636 31.416 103.644 31.872C104.676 32.304 105.564 32.904 106.308 33.672C107.076 34.416 107.676 35.304 108.108 36.336C108.564 37.368 108.792 38.46 108.792 39.612ZM108.432 39.612C108.432 38.484 108.216 37.44 107.784 36.48C107.376 35.496 106.812 34.644 106.092 33.924C105.372 33.18 104.52 32.604 103.536 32.196C102.576 31.764 101.532 31.548 100.404 31.548C99.276 31.548 98.22 31.764 97.236 32.196C96.252 32.604 95.4 33.168 94.68 33.888C93.96 34.608 93.384 35.46 92.952 36.444C92.544 37.428 92.34 38.484 92.34 39.612C92.34 40.716 92.544 41.76 92.952 42.744C93.384 43.728 93.96 44.58 94.68 45.3C95.424 46.02 96.288 46.596 97.272 47.028C98.256 47.436 99.3 47.64 100.404 47.64C101.508 47.64 102.54 47.436 103.5 47.028C104.484 46.596 105.336 46.02 106.056 45.3C106.8 44.556 107.376 43.704 107.784 42.744C108.216 41.76 108.432 40.716 108.432 39.612ZM121.181 31.188C122.645 31.188 123.989 31.536 125.213 32.232C126.437 32.904 127.421 33.816 128.165 34.968H127.769C126.977 33.888 126.017 33.048 124.889 32.448C123.785 31.848 122.549 31.548 121.181 31.548C120.365 31.548 119.585 31.668 118.841 31.908C118.121 32.124 117.449 32.436 116.825 32.844V48H112.793V39.612C112.793 38.46 113.009 37.368 113.441 36.336C113.897 35.304 114.497 34.416 115.241 33.672C116.009 32.904 116.897 32.304 117.905 31.872C118.937 31.416 120.029 31.188 121.181 31.188ZM137.924 39.612C138.932 39.828 139.844 40.2 140.66 40.728C141.5 41.232 142.208 41.856 142.784 42.6C143.36 43.344 143.804 44.184 144.116 45.12C144.452 46.032 144.62 46.992 144.62 48H144.26C144.26 47.952 144.26 47.928 144.26 47.928C144.284 47.904 144.296 47.868 144.296 47.82C144.296 46.716 144.08 45.672 143.648 44.688C143.24 43.704 142.664 42.852 141.92 42.132C141.2 41.388 140.348 40.812 139.364 40.404C138.38 39.972 137.336 39.756 136.232 39.756V48H132.2V22.8H136.232V39.432C137.336 39.432 138.38 39.228 139.364 38.82C140.348 38.388 141.2 37.812 141.92 37.092C142.664 36.348 143.24 35.484 143.648 34.5C144.08 33.516 144.296 32.472 144.296 31.368C144.296 31.32 144.284 31.296 144.26 31.296C144.26 31.272 144.26 31.236 144.26 31.188H144.62C144.62 32.196 144.452 33.168 144.116 34.104C143.804 35.04 143.36 35.88 142.784 36.624C142.208 37.368 141.5 38.004 140.66 38.532C139.844 39.036 138.932 39.396 137.924 39.612Z" fill="#083346"/>
<path d="M80.832 27.848C83.392 32.584 84.672 37.768 84.672 43.4C84.672 48.072 83.776 52.456 81.984 56.552C80.256 60.584 77.856 64.136 74.784 67.208C71.712 70.216 68.128 72.616 64.032 74.408C60 76.136 55.68 77 51.072 77C50.176 77 49.28 76.968 48.384 76.904C47.488 76.776 46.592 76.648 45.696 76.52V51.752C44.736 55.4 43.232 58.76 41.184 61.832C39.136 64.904 36.672 67.592 33.792 69.896C30.976 72.136 27.808 73.896 24.288 75.176C20.768 76.392 17.056 77 13.152 77C12.256 77 11.36 76.968 10.464 76.904C9.568 76.776 8.672 76.648 7.776 76.52V9.8H18.528V75.656C22.304 75.016 25.792 73.8 28.992 72.008C32.192 70.216 34.976 67.976 37.344 65.288C39.776 62.6 41.696 59.592 43.104 56.264C44.576 52.872 45.44 49.288 45.696 45.512V9.8H56.448V75.656C60.416 75.016 64.064 73.736 67.392 71.816C70.72 69.832 73.568 67.432 75.936 64.616C78.368 61.736 80.256 58.504 81.6 54.92C83.008 51.272 83.712 47.432 83.712 43.4C83.712 40.52 83.36 37.8 82.656 35.24C82.016 32.616 81.056 30.152 79.776 27.848H80.832Z" fill="#083346"/>
</svg>
